<?xml version="1.0" encoding="utf-8"?>
<svg xmlns="http://www.w3.org/2000/svg" style="margin: auto; background: rgb(241, 242, 243); display: block; shape-rendering: auto;" width="265" height="250" preserveAspectRatio="xMidYMid">
<style type="text/css">
  text {
    text-anchor: middle; font-size: 43px; opacity: 0;
  }
</style>
<g style="transform-origin: 132.5px 125px; transform: scale(0.5375);">
<g transform="translate(132.5,125)">
  <g transform="translate(0,0)"><g class="path" style="transform: scale(0.91); transform-origin: -209.075px -2.86682px; animation: 1s linear -0.586667s infinite normal forwards running breath-52af233f-f62a-4484-b37e-d0a2ca85c562;"><path d="M21.88-56.25L21.88 0L6.37 0L6.37-56.25L21.88-56.25" fill="#0a0a0a" stroke="none" stroke-width="none" transform="translate(-223.20001220703125,25.25817654079861)" style="fill: rgb(10, 10, 10);"></path></g><g class="path" style="transform: scale(0.91); transform-origin: -166.815px 6.95818px; animation: 1s linear -0.513333s infinite normal forwards running breath-52af233f-f62a-4484-b37e-d0a2ca85c562;"><path d="M79.45-25.86L79.45-25.86L79.45-25.86Q79.45-21.29 78.34-16.33L78.34-16.33L78.34-16.33Q77.23-11.37 75.23-6.60L75.23-6.60L75.23-6.60Q73.24-1.84 70.47 2.36L70.47 2.36L70.47 2.36Q67.70 6.56 64.38 9.61L64.38 9.61L59.41 6.91L59.41 6.91Q60.47 4.96 61.41 2.54L61.41 2.54L61.41 2.54Q62.34 0.12 63.11-2.60L63.11-2.60L63.11-2.60Q63.87-5.31 64.47-8.20L64.47-8.20L64.47-8.20Q65.08-11.09 65.49-13.93L65.49-13.93L65.49-13.93Q65.90-16.76 66.11-19.43L66.11-19.43L66.11-19.43Q66.33-22.11 66.33-24.41L66.33-24.41L66.33-24.41Q66.33-25.94 66.21-27.68L66.21-27.68L66.21-27.68Q66.09-29.41 65.72-31.15L65.72-31.15L65.72-31.15Q65.35-32.89 64.73-34.49L64.73-34.49L64.73-34.49Q64.10-36.09 63.07-37.30L63.07-37.30L63.07-37.30Q62.03-38.52 60.57-39.26L60.57-39.26L60.57-39.26Q59.10-40 57.11-40L57.11-40L57.11-40Q55.16-40 53.63-39.12L53.63-39.12L53.63-39.12Q52.11-38.24 50.94-36.82L50.94-36.82L50.94-36.82Q49.77-35.39 48.93-33.55L48.93-33.55L48.93-33.55Q48.09-31.72 47.56-29.79L47.56-29.79L47.56-29.79Q47.03-27.85 46.80-25.98L46.80-25.98L46.80-25.98Q46.56-24.10 46.56-22.62L46.56-22.62L46.56 0L33.32 0L33.32-45.12L38.40-45.12L44.45-34.61L44.45-34.61Q45.55-37.23 47.19-39.38L47.19-39.38L47.19-39.38Q48.83-41.52 50.90-43.05L50.90-43.05L50.90-43.05Q52.97-44.57 55.49-45.39L55.49-45.39L55.49-45.39Q58.01-46.21 60.94-46.21L60.94-46.21L60.94-46.21Q65.63-46.21 69.10-44.69L69.10-44.69L69.10-44.69Q72.58-43.16 74.88-40.45L74.88-40.45L74.88-40.45Q77.19-37.73 78.32-34.00L78.32-34.00L78.32-34.00Q79.45-30.27 79.45-25.86" fill="#0a0a0a" stroke="none" stroke-width="none" transform="translate(-223.20001220703125,25.25817654079861)" style="fill: rgb(10, 10, 10);"></path></g><g class="path" style="transform: scale(0.91); transform-origin: -117.05px 2.60318px; animation: 1s linear -0.44s infinite normal forwards running breath-52af233f-f62a-4484-b37e-d0a2ca85c562;"><path d="M126.99-14.41L126.99-14.41L126.99-14.41Q126.99-11.45 126.13-9.14L126.13-9.14L126.13-9.14Q125.27-6.84 123.79-5.14L123.79-5.14L123.79-5.14Q122.30-3.44 120.27-2.29L120.27-2.29L120.27-2.29Q118.24-1.13 115.92-0.43L115.92-0.43L115.92-0.43Q113.59 0.27 111.05 0.59L111.05 0.59L111.05 0.59Q108.52 0.90 106.02 0.90L106.02 0.90L106.02 0.90Q102.66 0.90 100.08 0.47L100.08 0.47L100.08 0.47Q97.50 0.04 95.16-0.92L95.16-0.92L95.16-0.92Q92.81-1.88 90.49-3.40L90.49-3.40L90.49-3.40Q88.16-4.92 85.31-7.11L85.31-7.11L93.01-13.40L93.01-13.40Q94.06-11.41 95.80-9.79L95.80-9.79L95.80-9.79Q97.54-8.16 99.41-6.99L99.41-6.99L99.41-6.99Q101.29-5.82 103.05-5.20L103.05-5.20L103.05-5.20Q104.80-4.57 105.90-4.57L105.90-4.57L105.90-4.57Q106.80-4.57 107.93-4.63L107.93-4.63L107.93-4.63Q109.06-4.69 110.23-4.86L110.23-4.86L110.23-4.86Q111.41-5.04 112.54-5.39L112.54-5.39L112.54-5.39Q113.67-5.74 114.55-6.35L114.55-6.35L114.55-6.35Q115.43-6.95 115.96-7.87L115.96-7.87L115.96-7.87Q116.48-8.79 116.48-10.08L116.48-10.08L116.48-10.08Q116.48-11.41 115.80-12.40L115.80-12.40L115.80-12.40Q115.12-13.40 114.02-14.14L114.02-14.14L114.02-14.14Q112.93-14.88 111.52-15.39L111.52-15.39L111.52-15.39Q110.12-15.90 108.69-16.29L108.69-16.29L108.69-16.29Q107.27-16.68 105.94-16.97L105.94-16.97L105.94-16.97Q104.61-17.27 103.63-17.54L103.63-17.54L103.63-17.54Q101.84-18.05 99.84-18.57L99.84-18.57L99.84-18.57Q97.85-19.10 95.90-19.79L95.90-19.79L95.90-19.79Q93.95-20.47 92.17-21.41L92.17-21.41L92.17-21.41Q90.39-22.34 89.04-23.65L89.04-23.65L89.04-23.65Q87.70-24.96 86.89-26.74L86.89-26.74L86.89-26.74Q86.09-28.52 86.09-30.90L86.09-30.90L86.09-30.90Q86.09-35.27 87.83-38.22L87.83-38.22L87.83-38.22Q89.57-41.17 92.42-42.95L92.42-42.95L92.42-42.95Q95.27-44.73 98.91-45.47L98.91-45.47L98.91-45.47Q102.54-46.21 106.29-46.21L106.29-46.21L106.29-46.21Q108.87-46.21 111.72-45.68L111.72-45.68L111.72-45.68Q114.57-45.16 117.27-44.12L117.27-44.12L117.27-44.12Q119.96-43.09 122.30-41.60L122.30-41.60L122.30-41.60Q124.65-40.12 126.21-38.20L126.21-38.20L118.52-31.88L118.52-31.88Q117.66-34.22 116.27-35.90L116.27-35.90L116.27-35.90Q114.88-37.58 113.26-38.65L113.26-38.65L113.26-38.65Q111.64-39.73 109.94-40.23L109.94-40.23L109.94-40.23Q108.24-40.74 106.80-40.74L106.80-40.74L106.80-40.74Q105.39-40.74 103.63-40.63L103.63-40.63L103.63-40.63Q101.88-40.51 100.33-39.96L100.33-39.96L100.33-39.96Q98.79-39.41 97.71-38.30L97.71-38.30L97.71-38.30Q96.64-37.19 96.64-35.23L96.64-35.23L96.64-35.23Q96.64-33.83 97.29-32.83L97.29-32.83L97.29-32.83Q97.93-31.84 98.98-31.11L98.98-31.11L98.98-31.11Q100.04-30.39 101.39-29.90L101.39-29.90L101.39-29.90Q102.73-29.41 104.14-29.04L104.14-29.04L104.14-29.04Q105.55-28.67 106.88-28.40L106.88-28.40L106.88-28.40Q108.20-28.13 109.26-27.81L109.26-27.81L109.26-27.81Q111.05-27.30 113.07-26.78L113.07-26.78L113.07-26.78Q115.08-26.25 117.03-25.57L117.03-25.57L117.03-25.57Q118.98-24.88 120.80-23.96L120.80-23.96L120.80-23.96Q122.62-23.05 123.98-21.72L123.98-21.72L123.98-21.72Q125.35-20.39 126.17-18.61L126.17-18.61L126.17-18.61Q126.99-16.84 126.99-14.41" fill="#0a0a0a" stroke="none" stroke-width="none" transform="translate(-223.20001220703125,25.25817654079861)" style="fill: rgb(10, 10, 10);"></path></g><g class="path" style="transform: scale(0.91); transform-origin: -74.78px -5.60182px; animation: 1s linear -0.366667s infinite normal forwards running breath-52af233f-f62a-4484-b37e-d0a2ca85c562;"><path d="M152.30-39.88L152.30 0L139.06 0L139.06-39.88L130.86-39.88L130.86-45.12L139.06-45.12L139.06-61.72L152.30-61.72L152.30-45.12L165.98-45.12L165.98-39.88L152.30-39.88" fill="#0a0a0a" stroke="none" stroke-width="none" transform="translate(-223.20001220703125,25.25817654079861)" style="fill: rgb(10, 10, 10);"></path></g><g class="path" style="transform: scale(0.91); transform-origin: -31.09px 2.60318px; animation: 1s linear -0.293333s infinite normal forwards running breath-52af233f-f62a-4484-b37e-d0a2ca85c562;"><path d="M216.09-45.12L216.09 0L202.89 0L202.89-5.39L202.89-5.39Q200.55-2.19 197.25-0.64L197.25-0.64L197.25-0.64Q193.95 0.90 190 0.90L190 0.90L190 0.90Q184.84 0.90 180.78-0.94L180.78-0.94L180.78-0.94Q176.72-2.77 173.91-5.96L173.91-5.96L173.91-5.96Q171.09-9.14 169.61-13.44L169.61-13.44L169.61-13.44Q168.13-17.73 168.13-22.66L168.13-22.66L168.13-22.66Q168.13-27.58 169.61-31.88L169.61-31.88L169.61-31.88Q171.09-36.17 173.91-39.36L173.91-39.36L173.91-39.36Q176.72-42.54 180.78-44.38L180.78-44.38L180.78-44.38Q184.84-46.21 190-46.21L190-46.21L190-46.21Q192.62-46.21 194.98-45.43L194.98-45.43L194.98-45.43Q197.34-44.65 199.32-43.22L199.32-43.22L199.32-43.22Q201.29-41.80 202.79-39.79L202.79-39.79L202.79-39.79Q204.30-37.77 205.16-35.31L205.16-35.31L211.02-45.12L216.09-45.12zM202.81-22.66L202.81-22.66L202.81-22.66Q202.81-24.41 202.64-26.37L202.64-26.37L202.64-26.37Q202.46-28.32 202.03-30.23L202.03-30.23L202.03-30.23Q201.60-32.15 200.84-33.89L200.84-33.89L200.84-33.89Q200.08-35.63 198.89-36.97L198.89-36.97L198.89-36.97Q197.70-38.32 196.02-39.10L196.02-39.10L196.02-39.10Q194.34-39.88 192.11-39.88L192.11-39.88L192.11-39.88Q189.88-39.88 188.24-39.08L188.24-39.08L188.24-39.08Q186.60-38.28 185.43-36.93L185.43-36.93L185.43-36.93Q184.26-35.59 183.50-33.83L183.50-33.83L183.50-33.83Q182.73-32.07 182.30-30.16L182.30-30.16L182.30-30.16Q181.88-28.24 181.70-26.31L181.70-26.31L181.70-26.31Q181.52-24.38 181.52-22.66L181.52-22.66L181.52-22.66Q181.52-20.94 181.70-18.98L181.70-18.98L181.70-18.98Q181.88-17.03 182.30-15.12L182.30-15.12L182.30-15.12Q182.73-13.20 183.50-11.45L183.50-11.45L183.50-11.45Q184.26-9.69 185.43-8.34L185.43-8.34L185.43-8.34Q186.60-6.99 188.24-6.19L188.24-6.19L188.24-6.19Q189.88-5.39 192.11-5.39L192.11-5.39L192.11-5.39Q194.14-5.39 195.72-6.23L195.72-6.23L195.72-6.23Q197.30-7.07 198.50-8.48L198.50-8.48L198.50-8.48Q199.69-9.88 200.51-11.68L200.51-11.68L200.51-11.68Q201.33-13.48 201.84-15.39L201.84-15.39L201.84-15.39Q202.34-17.30 202.58-19.20L202.58-19.20L202.58-19.20Q202.81-21.09 202.81-22.66" fill="#0a0a0a" stroke="none" stroke-width="none" transform="translate(-223.20001220703125,25.25817654079861)" style="fill: rgb(10, 10, 10);"></path></g><g class="path" style="transform: scale(0.91); transform-origin: 25.355px 12.5632px; animation: 1s linear -0.22s infinite normal forwards running breath-52af233f-f62a-4484-b37e-d0a2ca85c562;"><path d="M272.54-45.12L272.54-5.43L272.54-5.43Q272.54-0.04 270.94 4.73L270.94 4.73L270.94 4.73Q269.34 9.49 266.29 13.07L266.29 13.07L266.29 13.07Q263.24 16.64 258.81 18.73L258.81 18.73L258.81 18.73Q254.38 20.82 248.71 20.82L248.71 20.82L248.71 20.82Q245.59 20.82 242.40 20.12L242.40 20.12L242.40 20.12Q239.22 19.41 236.39 17.95L236.39 17.95L236.39 17.95Q233.55 16.48 231.31 14.24L231.31 14.24L231.31 14.24Q229.06 11.99 227.77 8.95L227.77 8.95L233.48 6.80L233.48 6.80Q234.22 8.71 235.41 10.31L235.41 10.31L235.41 10.31Q236.60 11.91 238.16 13.07L238.16 13.07L238.16 13.07Q239.73 14.22 241.60 14.86L241.60 14.86L241.60 14.86Q243.48 15.51 245.55 15.51L245.55 15.51L245.55 15.51Q249.45 15.51 252.09 13.91L252.09 13.91L252.09 13.91Q254.73 12.30 256.33 9.73L256.33 9.73L256.33 9.73Q257.93 7.15 258.63 3.89L258.63 3.89L258.63 3.89Q259.34 0.63 259.34-2.73L259.34-2.73L259.34-5.39L259.34-5.39Q256.99-2.19 253.69-0.64L253.69-0.64L253.69-0.64Q250.39 0.90 246.45 0.90L246.45 0.90L246.45 0.90Q241.29 0.90 237.23-0.94L237.23-0.94L237.23-0.94Q233.16-2.77 230.35-5.96L230.35-5.96L230.35-5.96Q227.54-9.14 226.05-13.44L226.05-13.44L226.05-13.44Q224.57-17.73 224.57-22.66L224.57-22.66L224.57-22.66Q224.57-27.58 226.05-31.88L226.05-31.88L226.05-31.88Q227.54-36.17 230.35-39.36L230.35-39.36L230.35-39.36Q233.16-42.54 237.23-44.38L237.23-44.38L237.23-44.38Q241.29-46.21 246.45-46.21L246.45-46.21L246.45-46.21Q249.06-46.21 251.43-45.43L251.43-45.43L251.43-45.43Q253.79-44.65 255.76-43.22L255.76-43.22L255.76-43.22Q257.73-41.80 259.24-39.79L259.24-39.79L259.24-39.79Q260.74-37.77 261.60-35.31L261.60-35.31L267.46-45.12L272.54-45.12zM259.26-22.66L259.26-22.66L259.26-22.66Q259.26-24.41 259.08-26.37L259.08-26.37L259.08-26.37Q258.91-28.32 258.48-30.23L258.48-30.23L258.48-30.23Q258.05-32.15 257.29-33.89L257.29-33.89L257.29-33.89Q256.52-35.63 255.33-36.97L255.33-36.97L255.33-36.97Q254.14-38.32 252.46-39.10L252.46-39.10L252.46-39.10Q250.78-39.88 248.55-39.88L248.55-39.88L248.55-39.88Q246.33-39.88 244.69-39.08L244.69-39.08L244.69-39.08Q243.05-38.28 241.88-36.93L241.88-36.93L241.88-36.93Q240.70-35.59 239.94-33.83L239.94-33.83L239.94-33.83Q239.18-32.07 238.75-30.16L238.75-30.16L238.75-30.16Q238.32-28.24 238.14-26.31L238.14-26.31L238.14-26.31Q237.97-24.38 237.97-22.66L237.97-22.66L237.97-22.66Q237.97-20.94 238.14-18.98L238.14-18.98L238.14-18.98Q238.32-17.03 238.75-15.12L238.75-15.12L238.75-15.12Q239.18-13.20 239.94-11.45L239.94-11.45L239.94-11.45Q240.70-9.69 241.88-8.34L241.88-8.34L241.88-8.34Q243.05-6.99 244.69-6.19L244.69-6.19L244.69-6.19Q246.33-5.39 248.55-5.39L248.55-5.39L248.55-5.39Q250.59-5.39 252.17-6.23L252.17-6.23L252.17-6.23Q253.75-7.07 254.94-8.48L254.94-8.48L254.94-8.48Q256.13-9.88 256.95-11.68L256.95-11.68L256.95-11.68Q257.77-13.48 258.28-15.39L258.28-15.39L258.28-15.39Q258.79-17.30 259.02-19.20L259.02-19.20L259.02-19.20Q259.26-21.09 259.26-22.66" fill="#0a0a0a" stroke="none" stroke-width="none" transform="translate(-223.20001220703125,25.25817654079861)" style="fill: rgb(10, 10, 10);"></path></g><g class="path" style="transform: scale(0.91); transform-origin: 79.53px 2.15318px; animation: 1s linear -0.146667s infinite normal forwards running breath-52af233f-f62a-4484-b37e-d0a2ca85c562;"><path d="M321.91-41.13L321.91-41.13L314.49-28.83L314.49-28.83Q314.02-30.39 313.28-32.34L313.28-32.34L313.28-32.34Q312.54-34.30 311.45-36.00L311.45-36.00L311.45-36.00Q310.35-37.70 308.83-38.85L308.83-38.85L308.83-38.85Q307.30-40 305.31-40L305.31-40L305.31-40Q303.48-40 302.13-39.06L302.13-39.06L302.13-39.06Q300.78-38.13 299.84-36.62L299.84-36.62L299.84-36.62Q298.91-35.12 298.30-33.22L298.30-33.22L298.30-33.22Q297.70-31.33 297.36-29.39L297.36-29.39L297.36-29.39Q297.03-27.46 296.91-25.68L296.91-25.68L296.91-25.68Q296.80-23.91 296.80-22.62L296.80-22.62L296.80 0L283.55 0L283.55-45.12L288.63-45.12L293.98-34.61L293.98-34.61Q295.08-37.15 296.48-39.28L296.48-39.28L296.48-39.28Q297.89-41.41 299.73-42.95L299.73-42.95L299.73-42.95Q301.56-44.49 303.89-45.35L303.89-45.35L303.89-45.35Q306.21-46.21 309.14-46.21L309.14-46.21L309.14-46.21Q310.66-46.21 312.54-45.96L312.54-45.96L312.54-45.96Q314.41-45.70 316.21-45.10L316.21-45.10L316.21-45.10Q318.01-44.49 319.53-43.52L319.53-43.52L319.53-43.52Q321.05-42.54 321.91-41.13" fill="#0a0a0a" stroke="none" stroke-width="none" transform="translate(-223.20001220703125,25.25817654079861)" style="fill: rgb(10, 10, 10);"></path></g><g class="path" style="transform: scale(0.91); transform-origin: 124.765px 2.60318px; animation: 1s linear -0.0733333s infinite normal forwards running breath-52af233f-f62a-4484-b37e-d0a2ca85c562;"><path d="M371.95-45.12L371.95 0L358.75 0L358.75-5.39L358.75-5.39Q356.41-2.19 353.11-0.64L353.11-0.64L353.11-0.64Q349.80 0.90 345.86 0.90L345.86 0.90L345.86 0.90Q340.70 0.90 336.64-0.94L336.64-0.94L336.64-0.94Q332.58-2.77 329.77-5.96L329.77-5.96L329.77-5.96Q326.95-9.14 325.47-13.44L325.47-13.44L325.47-13.44Q323.98-17.73 323.98-22.66L323.98-22.66L323.98-22.66Q323.98-27.58 325.47-31.88L325.47-31.88L325.47-31.88Q326.95-36.17 329.77-39.36L329.77-39.36L329.77-39.36Q332.58-42.54 336.64-44.38L336.64-44.38L336.64-44.38Q340.70-46.21 345.86-46.21L345.86-46.21L345.86-46.21Q348.48-46.21 350.84-45.43L350.84-45.43L350.84-45.43Q353.20-44.65 355.18-43.22L355.18-43.22L355.18-43.22Q357.15-41.80 358.65-39.79L358.65-39.79L358.65-39.79Q360.16-37.77 361.02-35.31L361.02-35.31L366.88-45.12L371.95-45.12zM358.67-22.66L358.67-22.66L358.67-22.66Q358.67-24.41 358.50-26.37L358.50-26.37L358.50-26.37Q358.32-28.32 357.89-30.23L357.89-30.23L357.89-30.23Q357.46-32.15 356.70-33.89L356.70-33.89L356.70-33.89Q355.94-35.63 354.75-36.97L354.75-36.97L354.75-36.97Q353.55-38.32 351.88-39.10L351.88-39.10L351.88-39.10Q350.20-39.88 347.97-39.88L347.97-39.88L347.97-39.88Q345.74-39.88 344.10-39.08L344.10-39.08L344.10-39.08Q342.46-38.28 341.29-36.93L341.29-36.93L341.29-36.93Q340.12-35.59 339.36-33.83L339.36-33.83L339.36-33.83Q338.59-32.07 338.16-30.16L338.16-30.16L338.16-30.16Q337.73-28.24 337.56-26.31L337.56-26.31L337.56-26.31Q337.38-24.38 337.38-22.66L337.38-22.66L337.38-22.66Q337.38-20.94 337.56-18.98L337.56-18.98L337.56-18.98Q337.73-17.03 338.16-15.12L338.16-15.12L338.16-15.12Q338.59-13.20 339.36-11.45L339.36-11.45L339.36-11.45Q340.12-9.69 341.29-8.34L341.29-8.34L341.29-8.34Q342.46-6.99 344.10-6.19L344.10-6.19L344.10-6.19Q345.74-5.39 347.97-5.39L347.97-5.39L347.97-5.39Q350-5.39 351.58-6.23L351.58-6.23L351.58-6.23Q353.16-7.07 354.36-8.48L354.36-8.48L354.36-8.48Q355.55-9.88 356.37-11.68L356.37-11.68L356.37-11.68Q357.19-13.48 357.70-15.39L357.70-15.39L357.70-15.39Q358.20-17.30 358.44-19.20L358.44-19.20L358.44-19.20Q358.67-21.09 358.67-22.66" fill="#0a0a0a" stroke="none" stroke-width="none" transform="translate(-223.20001220703125,25.25817654079861)" style="fill: rgb(10, 10, 10);"></path></g><g class="path" style="transform: scale(0.91); transform-origin: 194.67px 6.95818px; animation: 1s linear 0s infinite normal forwards running breath-52af233f-f62a-4484-b37e-d0a2ca85c562;"><path d="M452.77-26.33L452.77-26.33L452.77-26.33Q452.77-21.68 451.68-16.64L451.68-16.64L451.68-16.64Q450.59-11.60 448.61-6.82L448.61-6.82L448.61-6.82Q446.64-2.03 443.87 2.23L443.87 2.23L443.87 2.23Q441.09 6.48 437.70 9.61L437.70 9.61L432.73 6.91L432.73 6.91Q433.87 4.88 434.80 2.34L434.80 2.34L434.80 2.34Q435.74-0.20 436.52-3.01L436.52-3.01L436.52-3.01Q437.30-5.82 437.89-8.79L437.89-8.79L437.89-8.79Q438.48-11.76 438.89-14.71L438.89-14.71L438.89-14.71Q439.30-17.66 439.49-20.43L439.49-20.43L439.49-20.43Q439.69-23.20 439.69-25.63L439.69-25.63L439.69-25.63Q439.69-26.99 439.61-28.59L439.61-28.59L439.61-28.59Q439.53-30.20 439.28-31.80L439.28-31.80L439.28-31.80Q439.02-33.40 438.52-34.86L438.52-34.86L438.52-34.86Q438.01-36.33 437.13-37.48L437.13-37.48L437.13-37.48Q436.25-38.63 434.94-39.32L434.94-39.32L434.94-39.32Q433.63-40 431.80-40L431.80-40L431.80-40Q430-40 428.73-39.04L428.73-39.04L428.73-39.04Q427.46-38.09 426.56-36.56L426.56-36.56L426.56-36.56Q425.66-35.04 425.14-33.13L425.14-33.13L425.14-33.13Q424.61-31.21 424.34-29.28L424.34-29.28L424.34-29.28Q424.06-27.34 423.96-25.59L423.96-25.59L423.96-25.59Q423.87-23.83 423.87-22.62L423.87-22.62L423.87 0L410.70 0L410.70-21.02L410.70-21.02Q410.70-22.38 410.74-24.32L410.74-24.32L410.74-24.32Q410.78-26.25 410.64-28.36L410.64-28.36L410.64-28.36Q410.51-30.47 410.14-32.56L410.14-32.56L410.14-32.56Q409.77-34.65 408.96-36.29L408.96-36.29L408.96-36.29Q408.16-37.93 406.80-38.96L406.80-38.96L406.80-38.96Q405.43-40 403.36-40L403.36-40L403.36-40Q401.60-40 400.41-39.02L400.41-39.02L400.41-39.02Q399.22-38.05 398.42-36.50L398.42-36.50L398.42-36.50Q397.62-34.96 397.17-33.03L397.17-33.03L397.17-33.03Q396.72-31.09 396.50-29.16L396.50-29.16L396.50-29.16Q396.29-27.23 396.25-25.49L396.25-25.49L396.25-25.49Q396.21-23.75 396.21-22.62L396.21-22.62L396.21 0L382.97 0L382.97-45.12L388.05-45.12L392.89-34.61L392.89-34.61Q394.53-40.08 398.07-43.14L398.07-43.14L398.07-43.14Q401.60-46.21 407.46-46.21L407.46-46.21L407.46-46.21Q412.73-46.21 416.21-44.02L416.21-44.02L416.21-44.02Q419.69-41.84 421.68-36.91L421.68-36.91L421.68-36.91Q422.81-39.06 424.20-40.78L424.20-40.78L424.20-40.78Q425.59-42.50 427.29-43.71L427.29-43.71L427.29-43.71Q428.98-44.92 431.05-45.57L431.05-45.57L431.05-45.57Q433.13-46.21 435.63-46.21L435.63-46.21L435.63-46.21Q440.23-46.21 443.50-44.71L443.50-44.71L443.50-44.71Q446.76-43.20 448.83-40.55L448.83-40.55L448.83-40.55Q450.90-37.89 451.84-34.24L451.84-34.24L451.84-34.24Q452.77-30.59 452.77-26.33" fill="#0a0a0a" stroke="none" stroke-width="none" transform="translate(-223.20001220703125,25.25817654079861)" style="fill: rgb(10, 10, 10);"></path></g></g>
</g>
</g>
<style id="breath-52af233f-f62a-4484-b37e-d0a2ca85c562" data-anikit="">@keyframes breath-52af233f-f62a-4484-b37e-d0a2ca85c562
{
  0% {
    animation-timing-function: cubic-bezier(0.9647,0.2413,-0.0705,0.7911);
    transform: scale(0.9099999999999999);
  }
  51% {
    animation-timing-function: cubic-bezier(0.9226,0.2631,-0.0308,0.7628);
    transform: scale(1.02994);
  }
  100% {
    transform: scale(0.9099999999999999);
  }
}</style></svg>